<?xml version="1.0" standalone="no"?>
<!DOCTYPE svg PUBLIC "-//W3C//DTD SVG 20010904//EN"
 "http://www.w3.org/TR/2001/REC-SVG-20010904/DTD/svg10.dtd">
<svg version="1.0" xmlns="http://www.w3.org/2000/svg"
 width="750.000000pt" height="750.000000pt" viewBox="0 0 750.000000 750.000000"
 preserveAspectRatio="xMidYMid meet">
<metadata>
Created by potrace 1.11, written by Peter Selinger 2001-2013
</metadata>
<g transform="translate(0.000000,750.000000) scale(0.100000,-0.100000)"
fill="#000000" stroke="none">
<path d="M3545 7354 c-431 -60 -740 -172 -1050 -379 -450 -301 -786 -780 -921
-1311 -84 -333 -92 -682 -23 -1014 125 -607 486 -1121 1029 -1464 248 -156
595 -277 910 -316 108 -13 420 -13 530 0 653 79 1247 444 1612 990 38 58 103
173 144 255 241 489 296 1027 159 1561 -161 629 -595 1162 -1180 1449 -216
106 -386 161 -634 206 -89 17 -165 22 -331 24 -118 2 -228 1 -245 -1z m252
-1185 c45 -17 90 -67 103 -115 12 -40 18 -47 67 -70 68 -33 166 -123 204 -188
64 -113 20 -238 -97 -276 -29 -10 -49 -10 -90 -1 -47 11 -60 20 -109 76 -59
67 -93 85 -157 85 -141 0 -216 -181 -116 -280 41 -41 66 -50 166 -61 154 -16
294 -91 377 -201 104 -137 137 -287 100 -447 -34 -141 -149 -288 -272 -347
-55 -26 -62 -33 -72 -70 -21 -82 -80 -127 -166 -127 -84 0 -157 55 -171 128
-5 31 -14 39 -75 71 -75 40 -182 144 -212 206 -30 64 -19 148 26 196 82 89
213 78 286 -23 93 -130 267 -104 312 45 30 101 -57 210 -168 210 -132 1 -276
63 -378 165 -135 134 -184 306 -140 494 34 141 149 287 271 345 54 26 63 33
67 63 16 99 141 161 244 122z"/>
<path d="M7050 3859 c-48 -19 -93 -62 -116 -113 l-24 -51 0 -732 c0 -489 3
-741 11 -760 21 -56 61 -102 112 -128 47 -23 62 -25 183 -25 126 0 134 1 148
22 14 20 16 121 16 888 0 767 -2 868 -16 888 -14 21 -22 22 -152 21 -75 0
-148 -5 -162 -10z"/>
<path d="M150 2950 c-20 -20 -20 -33 -20 -888 0 -769 2 -870 16 -890 14 -21
22 -22 150 -22 147 0 186 9 238 58 16 15 37 45 47 67 18 38 19 81 19 785 0
838 4 793 -76 858 -53 44 -89 52 -231 52 -110 0 -125 -2 -143 -20z"/>
</g>
</svg>
